<?xml version="1.0" standalone="no"?>
<!DOCTYPE svg PUBLIC "-//W3C//DTD SVG 20010904//EN"
 "http://www.w3.org/TR/2001/REC-SVG-20010904/DTD/svg10.dtd">
<svg version="1.0" xmlns="http://www.w3.org/2000/svg"
 width="3543.000000pt" height="3543.000000pt" viewBox="0 0 3543.000000 3543.000000"
 preserveAspectRatio="xMidYMid meet">
<metadata>
Created by potrace 1.11, written by Peter Selinger 2001-2013
</metadata>
<g transform="translate(0.000000,3543.000000) scale(0.100000,-0.100000)"
fill="#000000" stroke="none">
<path d="M2675 33330 c10 -11 20 -20 23 -20 3 0 -3 9 -13 20 -10 11 -20 20
-23 20 -3 0 3 -9 13 -20z"/>
<path d="M32742 33337 c-6 -7 -44 -35 -84 -62 -40 -27 -75 -52 -78 -55 -3 -3
-18 -14 -35 -24 -16 -11 -34 -23 -40 -28 -5 -5 -145 -104 -310 -220 -507 -357
-919 -647 -930 -655 -6 -4 -31 -22 -55 -39 -85 -59 -278 -195 -510 -358 -30
-22 -237 -167 -459 -324 -223 -157 -430 -303 -460 -324 -31 -22 -132 -93 -226
-159 -93 -66 -195 -137 -225 -159 -65 -46 -573 -403 -643 -452 -26 -18 -67
-47 -90 -64 -44 -33 -546 -387 -621 -439 -24 -16 -73 -50 -108 -75 -34 -24
-88 -61 -118 -82 -89 -62 -176 -124 -315 -222 -71 -51 -193 -137 -270 -191
-137 -96 -535 -377 -625 -440 -87 -62 -660 -465 -1040 -732 -212 -149 -399
-282 -417 -295 -18 -12 -93 -66 -168 -118 -75 -52 -186 -131 -248 -175 l-112
-80 0 -1541 0 -1541 -429 -294 c-236 -162 -491 -337 -567 -389 -76 -52 -261
-179 -411 -282 -150 -103 -322 -221 -383 -262 -60 -42 -117 -80 -125 -86 -8
-5 -49 -34 -91 -64 -42 -30 -87 -60 -100 -67 -13 -6 -29 -17 -35 -23 -7 -6
-134 -94 -284 -196 -259 -177 -443 -303 -540 -370 -67 -46 -395 -271 -840
-576 -478 -328 -602 -413 -768 -526 -70 -48 -190 -131 -267 -183 -77 -53 -169
-116 -205 -141 -36 -25 -187 -129 -336 -231 l-271 -186 0 -1306 0 -1306 61
-65 c34 -36 64 -67 68 -70 4 -3 219 -215 478 -470 260 -256 581 -573 715 -705
134 -132 469 -463 745 -735 276 -272 597 -589 713 -703 117 -115 337 -332 489
-484 220 -218 281 -273 291 -264 8 6 1144 1141 2525 2522 l2512 2510 0 3106
c0 1709 -2 3104 -4 3102 -2 -2 -58 -112 -126 -244 -68 -132 -151 -294 -185
-360 -34 -66 -106 -205 -160 -310 -54 -104 -123 -239 -155 -300 -31 -60 -108
-209 -170 -330 -62 -121 -138 -269 -170 -330 -55 -105 -123 -236 -315 -610
-86 -166 -167 -324 -327 -635 -45 -85 -119 -229 -166 -320 -46 -91 -117 -228
-157 -305 -40 -77 -114 -221 -165 -320 -51 -99 -114 -223 -142 -275 l-49 -95
-105 -65 c-57 -36 -112 -69 -122 -75 -10 -5 -49 -30 -87 -55 -39 -24 -82 -51
-96 -60 -15 -8 -155 -96 -313 -195 -157 -99 -294 -184 -304 -190 -17 -10 -533
-332 -582 -364 -14 -8 -33 -20 -42 -26 -10 -5 -298 -185 -640 -400 -343 -214
-649 -405 -680 -425 -321 -198 -717 -447 -731 -459 -19 -16 -54 -18 -122 -7
-22 4 -67 11 -100 16 -33 5 -80 12 -105 15 -25 3 -54 7 -65 9 -22 4 -79 13
-135 20 -19 3 -84 12 -145 22 -60 9 -121 18 -135 19 -60 8 -117 16 -136 20
-12 3 -36 7 -55 9 -19 3 -70 10 -114 16 -103 15 -134 19 -165 25 -14 3 -41 7
-60 9 -19 2 -90 12 -158 22 l-123 18 28 26 c15 14 71 59 123 100 52 41 104 83
115 92 11 9 137 110 281 225 254 203 464 371 494 396 8 6 150 120 315 252 165
132 306 246 315 252 8 7 67 54 130 104 155 124 190 152 204 164 6 6 76 62 156
125 80 63 147 117 150 120 3 3 45 37 93 75 49 39 132 105 185 149 54 43 124
99 157 125 33 25 67 53 76 61 9 8 41 34 70 57 69 55 409 327 514 411 44 36 96
77 115 92 49 39 471 378 494 397 10 8 118 95 240 192 121 97 230 184 241 193
48 40 154 125 182 146 16 12 43 33 59 46 40 33 268 216 474 381 69 55 130 104
136 110 7 5 77 62 157 125 l145 115 0 1704 1 1705 33 31 c18 16 78 68 133 115
55 47 102 87 105 90 3 4 34 31 70 61 68 57 822 703 868 744 15 13 79 68 142
122 63 54 126 108 140 120 14 12 63 54 110 94 47 39 112 95 145 124 33 29 89
77 125 106 36 30 72 61 80 70 8 9 60 54 115 100 55 46 111 94 125 106 50 44
76 66 124 106 106 89 211 181 216 186 3 4 27 25 54 46 27 22 59 49 71 60 11
11 45 40 74 65 30 25 59 50 65 55 6 6 43 37 81 70 39 32 81 69 95 81 14 12 95
82 180 154 85 73 180 154 210 180 58 50 197 170 240 206 14 12 66 57 115 99
50 43 101 87 115 99 168 143 260 223 285 245 17 14 122 105 235 201 113 96
207 177 210 180 3 3 23 20 45 39 22 18 65 55 95 81 94 81 504 433 556 477 84
71 192 164 218 188 6 6 70 60 141 120 72 60 135 114 140 121 6 6 53 46 105 90
52 43 97 81 100 84 3 3 52 46 110 95 58 50 107 92 110 95 3 3 32 28 65 55 33
28 65 55 71 60 18 18 124 108 214 185 85 73 194 166 214 185 6 6 88 75 181
155 269 229 304 259 294 260 -4 0 -11 -6 -17 -13z"/>
<path d="M2710 33301 c0 -6 3 -11 8 -11 4 0 26 -17 48 -38 23 -20 52 -46 65
-57 74 -62 306 -261 320 -274 8 -9 35 -32 59 -51 24 -19 48 -40 54 -45 6 -6
42 -37 81 -70 38 -33 76 -65 83 -72 7 -7 34 -29 60 -50 26 -21 49 -41 52 -44
5 -6 38 -35 155 -134 32 -27 97 -84 145 -125 47 -41 110 -96 140 -121 184
-157 330 -282 354 -304 6 -6 38 -33 71 -60 33 -28 65 -54 71 -60 22 -21 139
-121 494 -425 201 -172 390 -334 420 -360 165 -142 238 -204 260 -224 29 -24
222 -189 260 -222 14 -12 207 -178 430 -369 223 -191 430 -369 460 -395 30
-26 89 -76 130 -111 74 -63 123 -105 144 -124 6 -5 40 -35 76 -65 36 -30 67
-57 70 -60 3 -3 50 -43 105 -90 55 -47 102 -87 105 -90 3 -3 34 -30 70 -60 36
-30 67 -57 70 -60 3 -3 34 -30 70 -60 36 -30 67 -57 70 -60 3 -3 34 -30 70
-60 36 -30 67 -57 70 -60 3 -3 147 -127 320 -275 173 -148 326 -279 340 -291
104 -91 204 -176 249 -214 29 -25 72 -61 95 -81 41 -36 307 -264 400 -343 27
-22 56 -48 65 -57 9 -8 139 -120 288 -248 249 -212 273 -235 274 -264 0 -18 0
-784 1 -1703 0 -919 3 -1675 7 -1680 3 -5 85 -72 181 -149 96 -77 177 -142
180 -145 3 -3 34 -27 70 -55 36 -27 67 -52 70 -55 3 -3 174 -141 380 -305 206
-165 377 -302 380 -305 3 -3 140 -113 305 -245 165 -131 302 -242 305 -245 3
-3 33 -27 67 -53 34 -26 68 -53 75 -60 7 -7 45 -37 83 -67 39 -30 122 -97 185
-148 140 -114 135 -109 190 -152 25 -19 47 -37 50 -40 3 -3 25 -21 50 -40 25
-19 47 -37 50 -40 4 -4 272 -219 370 -297 8 -6 29 -23 46 -37 16 -13 365 -293
775 -621 409 -327 751 -601 759 -608 9 -7 38 -31 66 -53 27 -21 56 -45 64 -52
12 -10 213 -171 390 -312 19 -15 78 -62 130 -104 52 -42 102 -82 110 -89 95
-75 176 -141 254 -204 l59 -48 -43 -7 c-24 -4 -66 -10 -94 -13 -28 -3 -60 -8
-71 -10 -11 -3 -38 -7 -60 -10 -22 -3 -71 -10 -110 -16 -38 -6 -85 -12 -104
-15 -19 -2 -46 -6 -60 -9 -14 -2 -91 -13 -171 -25 -80 -11 -156 -23 -170 -25
-14 -2 -45 -7 -70 -10 -25 -3 -85 -12 -135 -20 -49 -8 -110 -17 -135 -20 -25
-3 -70 -10 -100 -15 -30 -6 -73 -12 -95 -14 -48 -5 -112 -15 -142 -21 -22 -5
-39 3 -158 80 -55 36 -319 200 -363 226 -51 31 -797 498 -807 506 -6 4 -23 15
-38 23 -15 8 -224 138 -465 289 -240 151 -592 371 -782 489 -190 118 -371 232
-403 253 -32 22 -59 39 -61 39 -2 0 -104 63 -227 140 -263 164 -229 143 -355
222 l-102 63 -65 125 c-61 118 -110 214 -307 595 -45 88 -113 219 -150 290
-37 72 -111 216 -165 320 -54 105 -130 253 -170 330 -40 77 -112 217 -160 310
-48 94 -118 229 -155 300 -37 72 -111 216 -165 320 -54 105 -123 240 -155 300
-31 61 -110 214 -175 340 -65 127 -137 266 -160 310 -23 44 -89 170 -145 280
-101 198 -266 517 -302 585 l-18 35 0 -120 c0 -66 -1 -1464 -1 -3106 l0 -2987
2522 -2521 c1387 -1386 2524 -2521 2526 -2521 2 0 114 109 249 243 135 133
338 334 452 446 114 112 464 457 777 766 314 310 652 643 751 741 100 99 438
432 751 741 l570 563 0 1309 0 1309 -269 183 c-213 146 -466 320 -638 439 -8
5 -76 51 -150 102 -74 50 -137 94 -140 97 -3 3 -13 11 -22 16 -20 11 -347 235
-1018 696 -140 97 -290 200 -333 230 -44 30 -89 61 -102 69 -44 28 -667 455
-679 465 -6 6 -41 30 -76 54 -163 110 -276 187 -285 194 -5 4 -82 57 -170 117
-88 59 -165 112 -170 117 -6 4 -53 37 -105 72 -99 67 -143 97 -585 401 -149
102 -415 284 -591 405 l-321 219 1 1539 c1 1355 -1 1540 -14 1552 -8 7 -202
145 -430 305 -228 161 -437 309 -465 328 -187 132 -767 541 -800 564 -56 39
-124 87 -409 288 -137 96 -281 198 -320 225 -195 136 -368 258 -471 333 -63
45 -119 82 -124 82 -5 0 -11 4 -13 8 -1 4 -118 88 -258 187 -140 98 -284 199
-318 225 -35 25 -74 52 -85 60 -49 33 -465 326 -502 353 -22 16 -146 103 -275
193 -129 91 -244 172 -255 180 -11 8 -126 89 -255 180 -374 262 -504 354 -618
435 -145 102 -464 327 -532 374 -57 40 -332 234 -480 338 -47 33 -116 82 -155
109 -38 27 -140 99 -225 159 -210 149 -736 520 -763 539 -21 14 -198 138 -324
227 -35 24 -63 39 -63 34z"/>
<path d="M11964 26398 l1 -1263 155 -102 c85 -57 162 -109 171 -117 9 -7 20
-15 25 -17 5 -2 197 -130 427 -284 230 -154 425 -284 435 -290 9 -5 19 -12 22
-15 3 -3 277 -187 610 -410 333 -222 814 -544 1070 -715 256 -171 814 -545
1240 -830 426 -285 937 -627 1135 -760 l361 -242 171 111 c95 61 314 203 488
316 173 113 326 212 339 220 13 8 90 58 170 110 81 52 158 102 171 110 13 8
165 106 337 218 172 112 356 231 408 265 52 34 173 112 268 174 95 62 177 113
181 113 5 0 11 3 13 8 2 4 86 61 188 126 102 66 235 152 295 191 186 121 381
247 472 306 49 31 153 99 233 151 80 52 193 125 253 164 59 38 149 96 200 129
50 33 265 172 477 309 212 137 435 282 495 321 127 83 327 213 400 260 28 17
96 62 152 99 57 36 109 69 117 72 11 4 13 202 12 1267 l-1 1262 -5746 3 -5746
2 1 -1262z m5936 -283 c189 -24 440 -113 576 -205 25 -16 47 -30 50 -30 12 0
133 -99 203 -165 121 -115 247 -289 308 -424 13 -31 30 -69 38 -86 32 -74 69
-206 90 -325 19 -106 13 -401 -9 -505 -43 -200 -126 -393 -238 -557 -55 -81
-207 -246 -280 -305 -37 -30 -165 -116 -218 -146 -108 -62 -318 -138 -420
-153 -19 -3 -42 -7 -50 -10 -22 -8 -153 -17 -245 -18 -319 -1 -637 108 -895
307 -74 57 -212 193 -255 252 -17 22 -32 42 -35 45 -16 15 -94 146 -128 215
-38 76 -96 230 -106 278 -22 103 -35 181 -40 227 -8 66 -8 231 -1 280 2 19 7
53 10 75 5 38 7 50 21 120 6 34 51 179 64 210 65 150 106 223 202 352 229 308
620 533 988 569 36 3 66 7 68 9 5 5 248 -3 302 -10z"/>
<path d="M16988 17168 c-68 -62 -162 -147 -208 -188 -46 -41 -88 -79 -94 -85
-74 -66 -125 -112 -196 -177 -47 -42 -94 -85 -106 -95 -27 -23 -156 -139 -299
-268 -183 -165 -269 -242 -295 -265 -13 -12 -63 -56 -110 -99 -84 -77 -124
-113 -290 -261 -46 -41 -95 -87 -109 -101 l-26 -27 0 -5158 c1 -4893 2 -5161
18 -5192 10 -18 54 -93 97 -168 44 -74 80 -139 80 -144 0 -6 3 -10 8 -10 4 0
15 -17 25 -37 10 -21 33 -63 52 -93 19 -30 38 -62 42 -70 4 -8 26 -48 50 -88
24 -40 43 -75 43 -78 0 -3 14 -25 30 -49 16 -24 30 -46 30 -50 0 -3 16 -31 35
-61 19 -30 35 -56 35 -58 0 -2 101 -178 225 -390 124 -213 225 -392 225 -397
0 -5 4 -9 8 -9 4 0 13 -12 19 -28 7 -15 17 -34 23 -42 9 -14 210 -359 265
-455 30 -53 161 -279 191 -330 13 -22 44 -76 70 -120 25 -44 53 -93 63 -110
10 -16 64 -110 121 -207 56 -98 105 -178 109 -178 3 0 6 3420 6 7600 0 4180
-3 7600 -6 7600 -3 0 -62 -51 -131 -112z"/>
<path d="M18295 9681 c0 -4180 3 -7603 8 -7607 4 -4 7 -2 7 5 0 7 8 25 19 39
10 15 29 47 43 72 14 25 55 96 92 159 36 62 66 115 66 118 0 2 8 16 19 31 15
22 156 265 231 397 15 26 383 661 438 755 11 19 43 73 69 120 27 47 76 130
108 185 32 55 66 114 75 130 10 17 100 172 200 345 175 301 228 392 272 470
11 19 66 113 122 209 l101 175 0 5159 0 5159 -25 27 c-14 14 -61 58 -105 96
-108 97 -163 146 -195 175 -39 37 -190 172 -212 191 -27 24 -156 140 -188 169
-69 63 -195 177 -214 193 -25 22 -122 110 -296 267 -46 41 -91 82 -100 90 -78
69 -167 149 -184 165 -12 11 -86 78 -166 149 -80 71 -150 135 -156 142 -6 8
-15 14 -20 14 -5 0 -9 -3165 -9 -7599z"/>
<path d="M10745 14860 c-49 -10 -102 -23 -118 -29 -15 -6 -39 -13 -53 -15 -41
-8 -225 -100 -297 -149 -167 -115 -302 -269 -398 -451 -42 -80 -92 -209 -105
-271 -27 -123 -34 -182 -34 -295 -3 -335 124 -643 362 -881 231 -231 542 -361
868 -363 69 0 198 10 221 18 8 3 28 7 44 9 43 7 144 37 190 57 113 50 142 65
203 102 37 22 69 44 72 48 3 4 12 11 21 16 63 35 224 207 290 309 104 161 167
332 195 531 8 60 8 210 0 284 -55 509 -439 948 -933 1065 -108 26 -110 26
-278 30 -126 3 -179 0 -250 -15z"/>
<path d="M24265 14870 c-22 -5 -57 -11 -77 -14 -69 -11 -247 -77 -330 -123
-162 -88 -300 -209 -413 -359 -30 -40 -55 -75 -55 -77 0 -3 -15 -32 -34 -65
-97 -171 -149 -383 -149 -602 1 -520 352 -1000 848 -1162 212 -68 459 -81 657
-33 35 9 71 18 81 20 83 19 237 93 345 165 379 253 589 710 536 1169 -5 36 -8
68 -9 71 -1 3 -4 19 -8 35 -4 17 -9 39 -11 50 -10 54 -62 188 -103 267 -176
342 -502 581 -888 652 -85 15 -321 19 -390 6z"/>
<path d="M13510 13621 l-955 -955 -1 -1659 0 -1659 74 -127 c41 -69 84 -144
97 -166 44 -77 352 -601 426 -725 41 -69 76 -130 79 -136 3 -5 70 -121 150
-257 80 -136 153 -261 163 -278 9 -17 87 -148 171 -292 84 -144 163 -278 174
-297 23 -41 138 -238 151 -260 5 -8 103 -175 218 -371 l208 -356 3 2123 c1
1168 1 3079 0 4247 l-3 2123 -955 -955z"/>
<path d="M20950 10328 l0 -4253 26 45 c15 25 50 86 79 135 75 127 723 1233
747 1275 36 62 190 324 209 355 10 17 22 37 26 45 4 8 30 54 58 101 29 47 55
92 58 100 4 8 15 28 26 44 10 17 96 163 191 325 95 162 183 311 194 331 12 19
48 82 81 138 33 56 71 122 85 145 14 23 50 87 81 141 l57 100 -2 1656 -1 1655
-957 958 -958 957 0 -4253z"/>
</g>
</svg>
